<svg xmlns="http://www.w3.org/2000/svg" viewBox="0 0 1870 604.4" fill="#1D1D1F">
  <path d="M588.2,593.2v-248.4c0-84.1-35.3-131.4-105-131.4-73.7,0-105.8,40.9-105.8,129.8v250h-83.3v-258c0-87.3-40.9-121.8-101-121.8-73.7,0-109.8,43.3-109.8,130.6v249.2H0V149.3h76.9v48.1h1.6c36.1-42.5,69.7-60.1,127.4-60.1,57.7,0,115.4,28,137.8,74.5,32-50.5,76.1-74.5,146.6-74.5,115.4,0,181.1,72.1,181.1,186.7v269.3h-83.3Z"/>
  <path d="M1030.5,593.2v-48.1h-1.6c-21.6,37.7-72.1,59.3-130.6,59.3-95.4,0-185.1-51.3-185.1-207.6v-247.6h83.3v241.2c0,93,34.5,137.8,110.6,137.8s116.2-53.7,116.2-139.4v-239.6h83.3v443.9h-76.1Z"/>
  <path d="M1169.8,593.2V.2h83.3v593h-83.3Z"/>
  <path d="M1312.4,593.2V.2h83.3v593h-83.3Z"/>
  <path d="M1790,562.7c-32.9,26.4-79.3,41.7-137.8,41.7-126.6,0-219.6-99.4-219.6-234s100.2-233.2,222.8-233.2,163.5,46.5,205.9,122.6l-283.7,241.2c26.4,18.4,52.1,27.2,84.1,27.2,48.9,0,96.2-21.6,128.2-59.3v93.8ZM1758,252.6c-24.8-24.8-63.3-39.3-99.4-39.3-79.3,0-142.6,63.3-142.6,153.9s2.4,49.7,14.4,79.3l227.6-193.9Z"/>
</svg>
